<svg width="32" height="32" viewBox="0 0 32 32" fill="none" xmlns="http://www.w3.org/2000/svg">
<path d="M19.8125 9.19688H26.0469V10.7094H19.8125V9.19688ZM13.5656 15.1813C14.9438 14.5219 15.6656 13.5188 15.6656 11.9688C15.6656 8.90313 13.3844 8.15938 10.75 8.15938H3.5V23.5469H10.9531C13.7469 23.5469 16.3687 22.2031 16.3687 19.0781C16.3687 17.1469 15.4563 15.7188 13.5656 15.1813ZM6.88125 10.7844H10.0531C11.275 10.7844 12.3719 11.125 12.3719 12.5438C12.3719 13.85 11.5188 14.375 10.3094 14.375H6.88125V10.7844ZM10.4906 20.9344H6.87813V16.6969H10.5625C12.05 16.6969 12.9906 17.3188 12.9906 18.8938C12.9906 20.4438 11.8688 20.9344 10.4906 20.9344ZM28.4844 18.1375C28.4844 14.8406 26.5562 12.0938 23.0688 12.0938C19.6781 12.0938 17.3719 14.6469 17.3719 17.9938C17.3719 21.4625 19.5562 23.8438 23.0688 23.8438C25.7281 23.8438 27.45 22.6469 28.2781 20.0938H25.5812C25.2875 21.0469 24.0938 21.5469 23.1656 21.5469C21.3719 21.5469 20.4344 20.4969 20.4344 18.7125H28.4625C28.4719 18.5281 28.4844 18.3344 28.4844 18.1375ZM20.4344 16.7813C20.5312 15.3156 21.5094 14.4 22.9719 14.4C24.5094 14.4 25.2781 15.3031 25.4125 16.7813H20.4344Z" fill="#E6DB74"/>
</svg>
