<svg width="32" height="32" viewBox="0 0 32 32" fill="none" xmlns="http://www.w3.org/2000/svg">
<path d="M28.4908 12.0406L28.4814 11.9937C28.4752 11.9625 28.4721 11.9344 28.4627 11.9031C28.4564 11.8844 28.4502 11.8688 28.4471 11.85C28.4377 11.825 28.4314 11.7969 28.4189 11.7719C28.4127 11.7531 28.4033 11.7375 28.3939 11.7188C28.3814 11.6938 28.3689 11.6719 28.3564 11.6469C28.3471 11.6313 28.3377 11.6125 28.3252 11.5969C28.3002 11.5594 28.2721 11.5219 28.2439 11.4844C28.2283 11.4656 28.2096 11.4437 28.1908 11.425C28.1783 11.4094 28.1627 11.3969 28.1471 11.3844C28.1283 11.3656 28.1064 11.35 28.0877 11.3344C28.0721 11.3219 28.0564 11.3094 28.0377 11.2969C28.0314 11.2937 28.0252 11.2875 28.0189 11.2844L16.5971 3.68125C16.4208 3.56355 16.2137 3.50073 16.0018 3.50073C15.7898 3.50073 15.5827 3.56355 15.4064 3.68125L3.97832 11.2906C3.97207 11.2937 3.96582 11.3 3.95957 11.3031C3.94395 11.3156 3.92832 11.3281 3.90957 11.3406C3.8877 11.3562 3.86895 11.375 3.8502 11.3906C3.83457 11.4031 3.82207 11.4187 3.80645 11.4312C3.7877 11.45 3.76895 11.4688 3.75332 11.4906C3.72207 11.525 3.69707 11.5625 3.67207 11.6031C3.6627 11.6187 3.6502 11.6344 3.64082 11.6531C3.62832 11.675 3.61582 11.7 3.60332 11.725C3.59395 11.7406 3.5877 11.7594 3.57832 11.7781C3.56895 11.8031 3.55957 11.8312 3.5502 11.8562C3.54395 11.875 3.5377 11.8906 3.53457 11.9094C3.52832 11.9375 3.52207 11.9688 3.51582 12L3.50645 12.0469C3.5002 12.0938 3.49707 12.1406 3.49707 12.1875V19.7969C3.49707 19.8438 3.5002 19.8906 3.50645 19.9375L3.51582 19.9844L3.53457 20.075C3.54082 20.0938 3.54395 20.1094 3.5502 20.1281C3.55957 20.1562 3.56895 20.1812 3.57832 20.2062C3.58457 20.225 3.59395 20.2406 3.60332 20.2594C3.61582 20.2844 3.6252 20.3062 3.64082 20.3312C3.6502 20.3469 3.65957 20.3656 3.67207 20.3813C3.6877 20.4031 3.7002 20.425 3.71895 20.4469L3.75645 20.4937C3.77207 20.5125 3.79082 20.5344 3.80957 20.5531C3.82207 20.5688 3.8377 20.5812 3.85332 20.5938C3.87207 20.6125 3.89395 20.6281 3.9127 20.6437C3.92832 20.6562 3.94395 20.6687 3.9627 20.6812C3.96895 20.6844 3.9752 20.6906 3.98145 20.6938L15.4064 28.3031C15.5814 28.4219 15.7908 28.4844 16.0033 28.4844C16.2096 28.4844 16.4189 28.425 16.6002 28.3031L28.0252 20.6938C28.0314 20.6906 28.0377 20.6844 28.0439 20.6812C28.0596 20.6687 28.0752 20.6562 28.0939 20.6437C28.1158 20.6281 28.1346 20.6094 28.1533 20.5938C28.1689 20.5812 28.1814 20.5656 28.1971 20.5531C28.2158 20.5344 28.2346 20.5156 28.2502 20.4937L28.2877 20.4469L28.3346 20.3813C28.3439 20.3656 28.3564 20.35 28.3658 20.3312C28.3783 20.3062 28.3908 20.2844 28.4033 20.2594C28.4127 20.2437 28.4189 20.225 28.4283 20.2062C28.4377 20.1812 28.4471 20.1531 28.4564 20.1281C28.4627 20.1125 28.4689 20.0938 28.4721 20.075C28.4814 20.0469 28.4846 20.0156 28.4908 19.9844L28.5002 19.9375C28.5064 19.8906 28.5096 19.8438 28.5096 19.7969V12.1812C28.5002 12.1344 28.4971 12.0875 28.4908 12.0406ZM17.0752 6.57812L25.4939 12.1844L21.7346 14.6969L17.0783 11.5844V6.57812H17.0752ZM14.9252 6.57812V11.5844L10.2689 14.6969L6.50957 12.1844L14.9252 6.57812ZM5.64707 14.1906L8.33457 15.9875L5.64707 17.7844V14.1906ZM14.9252 25.3937L6.50957 19.7875L10.2689 17.275L14.9252 20.3875V25.3937ZM16.0002 18.525L12.2002 15.9875L16.0002 13.4469L19.8002 15.9844L16.0002 18.525ZM17.0752 25.3937V20.3875L21.7314 17.275L25.4908 19.7875L17.0752 25.3937ZM26.3533 17.7812L23.6658 15.9844L26.3533 14.1875V17.7812Z" fill="#E6DB74"/>
</svg>
