<svg width="32" height="32" viewBox="0 0 32 32" fill="none" xmlns="http://www.w3.org/2000/svg">
<path d="M16.0001 9.59062C12.4533 9.59062 9.59077 12.4531 9.59077 16C9.59077 19.5469 12.4533 22.4094 16.0001 22.4094C19.547 22.4094 22.4095 19.5469 22.4095 16C22.4095 12.4531 19.547 9.59062 16.0001 9.59062ZM16.0001 20.1656C13.7064 20.1656 11.8345 18.2937 11.8345 16C11.8345 13.7062 13.7064 11.8344 16.0001 11.8344C18.2939 11.8344 20.1658 13.7062 20.1658 16C20.1658 18.2937 18.2939 20.1656 16.0001 20.1656ZM22.672 7.83437C21.8439 7.83437 21.1751 8.50312 21.1751 9.33124C21.1751 10.1594 21.8439 10.8281 22.672 10.8281C23.5001 10.8281 24.1689 10.1625 24.1689 9.33124C24.1691 9.1346 24.1306 8.93984 24.0555 8.75812C23.9803 8.5764 23.8701 8.41129 23.731 8.27224C23.592 8.13319 23.4269 8.02295 23.2451 7.94781C23.0634 7.87267 22.8687 7.83412 22.672 7.83437ZM28.4939 16C28.4939 14.275 28.5095 12.5656 28.4126 10.8437C28.3158 8.84374 27.8595 7.06874 26.397 5.60624C24.9314 4.14062 23.1595 3.68749 21.1595 3.59062C19.4345 3.49374 17.7251 3.50937 16.0033 3.50937C14.2783 3.50937 12.5689 3.49374 10.847 3.59062C8.84702 3.68749 7.07202 4.14374 5.60952 5.60624C4.1439 7.07187 3.69077 8.84374 3.5939 10.8437C3.49702 12.5687 3.51265 14.2781 3.51265 16C3.51265 17.7219 3.49702 19.4344 3.5939 21.1562C3.69077 23.1562 4.14702 24.9312 5.60952 26.3937C7.07515 27.8594 8.84702 28.3125 10.847 28.4094C12.572 28.5062 14.2814 28.4906 16.0033 28.4906C17.7283 28.4906 19.4376 28.5062 21.1595 28.4094C23.1595 28.3125 24.9345 27.8562 26.397 26.3937C27.8626 24.9281 28.3158 23.1562 28.4126 21.1562C28.5126 19.4344 28.4939 17.725 28.4939 16ZM25.7439 23.3687C25.5158 23.9375 25.2408 24.3625 24.8001 24.8C24.3595 25.2406 23.9376 25.5156 23.3689 25.7437C21.7251 26.3969 17.822 26.25 16.0001 26.25C14.1783 26.25 10.272 26.3969 8.62827 25.7469C8.05952 25.5187 7.63452 25.2437 7.19702 24.8031C6.7564 24.3625 6.4814 23.9406 6.25327 23.3719C5.60327 21.725 5.75015 17.8219 5.75015 16C5.75015 14.1781 5.60327 10.2719 6.25327 8.62812C6.4814 8.05937 6.7564 7.63437 7.19702 7.19687C7.63765 6.75937 8.05952 6.48124 8.62827 6.25312C10.272 5.60312 14.1783 5.74999 16.0001 5.74999C17.822 5.74999 21.7283 5.60312 23.372 6.25312C23.9408 6.48124 24.3658 6.75624 24.8033 7.19687C25.2439 7.63749 25.5189 8.05937 25.747 8.62812C26.397 10.2719 26.2501 14.1781 26.2501 16C26.2501 17.8219 26.397 21.725 25.7439 23.3687Z" fill="#E6DB74"/>
</svg>
