<svg width="28" height="28" viewBox="0 0 28 28" fill="none" xmlns="http://www.w3.org/2000/svg">
<path d="M27.8792 15.9833V25.9H21.9654V16.625C21.9654 14.0194 20.9597 12.7167 18.9482 12.7167C17.4597 12.7167 16.4338 13.4167 15.8706 14.8167C15.7499 15.0889 15.6896 15.5556 15.6896 16.2167V25.9H9.71543C9.75566 15.4389 9.75566 9.66389 9.71543 8.575H15.6896V11.025L15.6292 11.0833H15.6896V11.025C16.9769 9.11945 18.7672 8.16667 21.0603 8.16667C23.112 8.16667 24.7614 8.82778 26.0085 10.15C27.2557 11.4722 27.8792 13.4167 27.8792 15.9833ZM3.49992 0.233337C2.49417 0.233337 1.67951 0.515282 1.05595 1.07917C0.432387 1.64306 0.120605 2.35278 0.120605 3.20834C0.120605 4.06389 0.42233 4.78334 1.02578 5.36667C1.62923 5.95 2.41371 6.24167 3.37923 6.24167H3.43957C4.44532 6.24167 5.25997 5.95 5.88354 5.36667C6.5071 4.78334 6.81888 4.06389 6.81888 3.20834C6.77865 2.35278 6.45681 1.64306 5.85336 1.07917C5.24992 0.515282 4.46543 0.233337 3.49992 0.233337ZM0.42233 25.9H6.39647V8.575H0.42233V25.9Z" fill="#E6DB74"/>
</svg>
