<svg width="32" height="32" viewBox="0 0 32 32" fill="none" xmlns="http://www.w3.org/2000/svg">
<path d="M28.4907 12.0406L28.4814 11.9937C28.4751 11.9625 28.472 11.9344 28.4626 11.9031C28.4564 11.8844 28.4501 11.8688 28.447 11.85C28.4376 11.825 28.4314 11.7969 28.4189 11.7719C28.4126 11.7531 28.4032 11.7375 28.3939 11.7188C28.3814 11.6937 28.3689 11.6719 28.3564 11.6469C28.347 11.6313 28.3376 11.6125 28.3251 11.5969C28.3001 11.5594 28.272 11.5219 28.2439 11.4844C28.2282 11.4656 28.2095 11.4437 28.1907 11.425C28.1782 11.4094 28.1626 11.3969 28.147 11.3844C28.1282 11.3656 28.1064 11.35 28.0876 11.3344C28.072 11.3219 28.0564 11.3094 28.0376 11.2969C28.0314 11.2937 28.0251 11.2875 28.0189 11.2844L16.597 3.68125C16.4207 3.56355 16.2136 3.50073 16.0017 3.50073C15.7897 3.50073 15.5826 3.56355 15.4064 3.68125L3.97823 11.2906C3.97198 11.2937 3.96573 11.3 3.95948 11.3031C3.94385 11.3156 3.92823 11.3281 3.90948 11.3406C3.8876 11.3562 3.86885 11.375 3.8501 11.3906C3.83448 11.4031 3.82198 11.4187 3.80635 11.4312C3.7876 11.45 3.76885 11.4687 3.75323 11.4906C3.72198 11.525 3.69698 11.5625 3.67198 11.6031C3.6626 11.6187 3.6501 11.6344 3.64073 11.6531C3.62823 11.675 3.61573 11.7 3.60323 11.725C3.59385 11.7406 3.5876 11.7594 3.57823 11.7781C3.56885 11.8031 3.55948 11.8312 3.5501 11.8562C3.54385 11.875 3.5376 11.8906 3.53448 11.9094C3.52823 11.9375 3.52198 11.9688 3.51573 12L3.50635 12.0469C3.5001 12.0938 3.49698 12.1406 3.49698 12.1875V19.7969C3.49698 19.8438 3.5001 19.8906 3.50635 19.9375L3.51573 19.9844L3.53448 20.075C3.54073 20.0938 3.54385 20.1094 3.5501 20.1281C3.55948 20.1562 3.56885 20.1812 3.57823 20.2062C3.58448 20.225 3.59385 20.2406 3.60323 20.2594C3.61573 20.2844 3.6251 20.3062 3.64073 20.3312C3.6501 20.3469 3.65948 20.3656 3.67198 20.3813C3.6876 20.4031 3.7001 20.425 3.71885 20.4469L3.75635 20.4937C3.77198 20.5125 3.79073 20.5344 3.80948 20.5531C3.82198 20.5688 3.8376 20.5812 3.85323 20.5938C3.87198 20.6125 3.89385 20.6281 3.9126 20.6437C3.92823 20.6562 3.94385 20.6687 3.9626 20.6812C3.96885 20.6844 3.9751 20.6906 3.98135 20.6938L15.4064 28.3031C15.5814 28.4219 15.7907 28.4844 16.0032 28.4844C16.2095 28.4844 16.4189 28.425 16.6001 28.3031L28.0251 20.6938C28.0314 20.6906 28.0376 20.6844 28.0439 20.6812C28.0595 20.6687 28.0751 20.6562 28.0939 20.6437C28.1157 20.6281 28.1345 20.6094 28.1532 20.5938C28.1689 20.5812 28.1814 20.5656 28.197 20.5531C28.2157 20.5344 28.2345 20.5156 28.2501 20.4937L28.2876 20.4469L28.3345 20.3813C28.3439 20.3656 28.3564 20.35 28.3657 20.3312C28.3782 20.3062 28.3907 20.2844 28.4032 20.2594C28.4126 20.2437 28.4189 20.225 28.4282 20.2062C28.4376 20.1812 28.447 20.1531 28.4564 20.1281C28.4626 20.1125 28.4689 20.0938 28.472 20.075C28.4814 20.0469 28.4845 20.0156 28.4907 19.9844L28.5001 19.9375C28.5064 19.8906 28.5095 19.8438 28.5095 19.7969V12.1812C28.5001 12.1344 28.497 12.0875 28.4907 12.0406ZM17.0751 6.57812L25.4939 12.1844L21.7345 14.6969L17.0782 11.5844V6.57812H17.0751ZM14.9251 6.57812V11.5844L10.2689 14.6969L6.50948 12.1844L14.9251 6.57812V6.57812ZM5.64698 14.1906L8.33448 15.9875L5.64698 17.7844V14.1906ZM14.9251 25.3937L6.50948 19.7875L10.2689 17.275L14.9251 20.3875V25.3937V25.3937ZM16.0001 18.525L12.2001 15.9875L16.0001 13.4469L19.8001 15.9844L16.0001 18.525ZM17.0751 25.3937V20.3875L21.7314 17.275L25.4907 19.7875L17.0751 25.3937V25.3937ZM26.3532 17.7812L23.6657 15.9844L26.3532 14.1875V17.7812Z" fill="white"/>
</svg>
