<svg width="12" height="14" viewBox="0 0 12 14" fill="none" xmlns="http://www.w3.org/2000/svg">
<path d="M10.7368 12.1925H3.78947V3.65775H10.7368V12.1925ZM10.7368 2.4385H3.78947C3.45446 2.4385 3.13317 2.56696 2.89629 2.79561C2.6594 3.02427 2.52632 3.33439 2.52632 3.65775V12.1925C2.52632 12.5159 2.6594 12.826 2.89629 13.0547C3.13317 13.2833 3.45446 13.4118 3.78947 13.4118H10.7368C11.0719 13.4118 11.3931 13.2833 11.63 13.0547C11.8669 12.826 12 12.5159 12 12.1925V3.65775C12 3.33439 11.8669 3.02427 11.63 2.79561C11.3931 2.56696 11.0719 2.4385 10.7368 2.4385ZM8.8421 0H1.26316C0.928148 0 0.606858 0.128456 0.36997 0.35711C0.133082 0.585764 0 0.895886 0 1.21925V9.75401H1.26316V1.21925H8.8421V0Z" fill="white"/>
</svg>
