<svg width="32" height="32" viewBox="0 0 32 32" fill="none" xmlns="http://www.w3.org/2000/svg">
<path d="M16 2.66663C8.64802 2.66663 2.66669 8.64796 2.66669 16C2.66669 23.352 8.64802 29.3333 16 29.3333C23.352 29.3333 29.3334 23.352 29.3334 16C29.3334 8.64796 23.352 2.66663 16 2.66663ZM17.3334 24H14.6667V21.3333H17.3334V24ZM18.6347 17.4866C18.3734 17.6973 18.1214 17.8986 17.9214 18.0986C17.3774 18.6413 17.3347 19.1346 17.3334 19.156V19.3333H14.6667V19.1106C14.6667 18.9533 14.7054 17.5413 16.0347 16.212C16.2947 15.952 16.6174 15.688 16.956 15.4133C17.9347 14.62 18.5774 14.0413 18.5774 13.244C18.5619 12.5704 18.2834 11.9296 17.8014 11.4588C17.3195 10.9879 16.6725 10.7244 15.9987 10.7246C15.325 10.7248 14.678 10.9886 14.1963 11.4597C13.7147 11.9308 13.4365 12.5717 13.4214 13.2453H10.7547C10.7547 10.3533 13.108 7.99996 16 7.99996C18.892 7.99996 21.2454 10.3533 21.2454 13.2453C21.2454 15.3746 19.6734 16.6453 18.6347 17.4866V17.4866Z" fill="white"/>
</svg>
