<svg width="32" height="32" viewBox="0 0 32 32" fill="none" xmlns="http://www.w3.org/2000/svg">
<path d="M16.0001 9.5906C12.4532 9.5906 9.59071 12.4531 9.59071 16C9.59071 19.5469 12.4532 22.4094 16.0001 22.4094C19.547 22.4094 22.4095 19.5469 22.4095 16C22.4095 12.4531 19.547 9.5906 16.0001 9.5906ZM16.0001 20.1656C13.7063 20.1656 11.8345 18.2937 11.8345 16C11.8345 13.7062 13.7063 11.8344 16.0001 11.8344C18.2938 11.8344 20.1657 13.7062 20.1657 16C20.1657 18.2937 18.2938 20.1656 16.0001 20.1656ZM22.672 7.83435C21.8438 7.83435 21.1751 8.5031 21.1751 9.33123C21.1751 10.1594 21.8438 10.8281 22.672 10.8281C23.5001 10.8281 24.1688 10.1625 24.1688 9.33123C24.1691 9.13459 24.1305 8.93983 24.0554 8.75811C23.9803 8.57639 23.87 8.41127 23.731 8.27223C23.5919 8.13318 23.4268 8.02293 23.2451 7.94779C23.0634 7.87265 22.8686 7.83411 22.672 7.83435V7.83435ZM28.4938 16C28.4938 14.275 28.5095 12.5656 28.4126 10.8437C28.3157 8.84373 27.8595 7.06873 26.397 5.60623C24.9313 4.1406 23.1595 3.68748 21.1595 3.5906C19.4345 3.49373 17.7251 3.50935 16.0032 3.50935C14.2782 3.50935 12.5688 3.49373 10.847 3.5906C8.84696 3.68748 7.07196 4.14373 5.60946 5.60623C4.14384 7.07185 3.69071 8.84373 3.59384 10.8437C3.49696 12.5687 3.51259 14.2781 3.51259 16C3.51259 17.7219 3.49696 19.4344 3.59384 21.1562C3.69071 23.1562 4.14696 24.9312 5.60946 26.3937C7.07509 27.8594 8.84696 28.3125 10.847 28.4094C12.572 28.5062 14.2813 28.4906 16.0032 28.4906C17.7282 28.4906 19.4376 28.5062 21.1595 28.4094C23.1595 28.3125 24.9345 27.8562 26.397 26.3937C27.8626 24.9281 28.3157 23.1562 28.4126 21.1562C28.5126 19.4344 28.4938 17.725 28.4938 16V16ZM25.7438 23.3687C25.5157 23.9375 25.2407 24.3625 24.8001 24.8C24.3595 25.2406 23.9376 25.5156 23.3688 25.7437C21.7251 26.3969 17.822 26.25 16.0001 26.25C14.1782 26.25 10.272 26.3969 8.62821 25.7469C8.05946 25.5187 7.63446 25.2437 7.19696 24.8031C6.75634 24.3625 6.48134 23.9406 6.25321 23.3719C5.60321 21.725 5.75009 17.8219 5.75009 16C5.75009 14.1781 5.60321 10.2719 6.25321 8.6281C6.48134 8.05935 6.75634 7.63435 7.19696 7.19685C7.63759 6.75935 8.05946 6.48123 8.62821 6.2531C10.272 5.6031 14.1782 5.74998 16.0001 5.74998C17.822 5.74998 21.7282 5.6031 23.372 6.2531C23.9407 6.48123 24.3657 6.75623 24.8032 7.19685C25.2438 7.63748 25.5188 8.05935 25.747 8.6281C26.397 10.2719 26.2501 14.1781 26.2501 16C26.2501 17.8219 26.397 21.725 25.7438 23.3687Z" fill="white"/>
</svg>
