<svg width="32" height="32" viewBox="0 0 32 32" fill="none" xmlns="http://www.w3.org/2000/svg">
<path d="M30 18.887V28.8899H24.0348V19.5342C24.0348 16.906 23.0203 15.5919 20.9913 15.5919C19.4899 15.5919 18.4551 16.298 17.887 17.7101C17.7652 17.9847 17.7043 18.4555 17.7043 19.1223V28.8899H11.6783C11.7188 18.3378 11.7188 12.5126 11.6783 11.4142H17.7043V13.8855L17.6435 13.9443H17.7043V13.8855C19.0029 11.9634 20.8087 11.0023 23.1217 11.0023C25.1913 11.0023 26.8551 11.6692 28.113 13.0029C29.371 14.3366 30 16.298 30 18.887ZM5.4087 3C4.3942 3 3.57246 3.2844 2.94348 3.85319C2.31449 4.42198 2 5.13787 2 6.00087C2 6.86387 2.30435 7.58957 2.91304 8.17797C3.52174 8.76638 4.31304 9.06058 5.28696 9.06058H5.34783C6.36232 9.06058 7.18406 8.76638 7.81304 8.17797C8.44203 7.58957 8.75652 6.86387 8.75652 6.00087C8.71594 5.13787 8.3913 4.42198 7.78261 3.85319C7.17391 3.2844 6.38261 3 5.4087 3ZM2.30435 28.8899H8.33043V11.4142H2.30435V28.8899Z" fill="white"/>
</svg>
