<svg width="32" height="32" viewBox="0 0 32 32" fill="none" xmlns="http://www.w3.org/2000/svg">
<path d="M29.0001 7.94689C28.0439 8.35939 27.0032 8.65626 25.9314 8.77189C27.0442 8.11075 27.8776 7.06626 28.2751 5.83439C27.2308 6.4556 26.0868 6.89121 24.8939 7.12189C24.3952 6.58885 23.7922 6.1642 23.1223 5.87441C22.4524 5.58462 21.73 5.4359 21.0001 5.43751C18.047 5.43751 15.672 7.83126 15.672 10.7688C15.672 11.1813 15.722 11.5938 15.8032 11.9906C11.3814 11.7594 7.4376 9.64689 4.81573 6.41251C4.338 7.2285 4.08765 8.15759 4.09073 9.10314C4.09073 10.9531 5.03135 12.5844 6.46573 13.5438C5.62043 13.5105 4.79492 13.2781 4.05635 12.8656V12.9313C4.05635 15.5219 5.8876 17.6688 8.32823 18.1625C7.86997 18.2815 7.39856 18.3424 6.9251 18.3438C6.57823 18.3438 6.2501 18.3094 5.91885 18.2625C6.59385 20.375 8.55948 21.9094 10.9001 21.9594C9.06885 23.3938 6.7751 24.2375 4.28448 24.2375C3.8376 24.2375 3.4251 24.2219 2.99698 24.1719C5.35948 25.6875 8.1626 26.5625 11.1814 26.5625C20.9814 26.5625 26.3439 18.4438 26.3439 11.3969C26.3439 11.1656 26.3439 10.9344 26.3282 10.7031C27.3657 9.94376 28.2751 9.00314 29.0001 7.94689Z" fill="white"/>
</svg>
